<svg width="40" height="40" viewBox="0 0 40 40" fill="none" xmlns="http://www.w3.org/2000/svg">
<g clip-path="url(#clip0_1_79)">
<g clip-path="url(#clip1_1_79)">
<g clip-path="url(#clip2_1_79)">
<mask id="mask0_1_79" style="mask-type:alpha" maskUnits="userSpaceOnUse" x="0" y="0" width="41" height="41">
<path d="M41 0H0V41H41V0Z" fill="#D9D9D9"/>
</mask>
<g mask="url(#mask0_1_79)">
<path d="M18.0426 27.1757L28.9694 16.2489L27.7604 15.0399L18.0426 24.7577L13.1739 19.8889L11.9649 21.0979L18.0426 27.1757ZM20.5057 35.875C18.3796 35.875 16.3807 35.4716 14.509 34.6647C12.6374 33.8578 11.0093 32.7627 9.62471 31.3795C8.24019 29.9962 7.14411 28.3697 6.33646 26.4998C5.52882 24.6298 5.125 22.6318 5.125 20.5057C5.125 18.3796 5.52844 16.3807 6.33531 14.509C7.14221 12.6374 8.23728 11.0093 9.62052 9.62471C11.0038 8.24019 12.6303 7.14411 14.5002 6.33647C16.3702 5.52882 18.3682 5.125 20.4943 5.125C22.6204 5.125 24.6193 5.52844 26.491 6.33531C28.3626 7.14221 29.9907 8.23728 31.3753 9.62052C32.7598 11.0038 33.8559 12.6303 34.6635 14.5002C35.4712 16.3702 35.875 18.3682 35.875 20.4943C35.875 22.6204 35.4716 24.6193 34.6647 26.491C33.8578 28.3626 32.7627 29.9907 31.3795 31.3753C29.9962 32.7598 28.3697 33.8559 26.4998 34.6635C24.6298 35.4712 22.6318 35.875 20.5057 35.875ZM20.5 34.1667C24.3153 34.1667 27.5469 32.8427 30.1948 30.1948C32.8427 27.5469 34.1667 24.3153 34.1667 20.5C34.1667 16.6847 32.8427 13.4531 30.1948 10.8052C27.5469 8.15729 24.3153 6.83333 20.5 6.83333C16.6847 6.83333 13.4531 8.15729 10.8052 10.8052C8.15729 13.4531 6.83333 16.6847 6.83333 20.5C6.83333 24.3153 8.15729 27.5469 10.8052 30.1948C13.4531 32.8427 16.6847 34.1667 20.5 34.1667Z" fill="#1C1B1F"/>
</g>
</g>
</g>
</g>
<defs>
<clipPath id="clip0_1_79">
<rect width="40" height="40" fill="white"/>
</clipPath>
<clipPath id="clip1_1_79">
<rect width="41" height="41" fill="white"/>
</clipPath>
<clipPath id="clip2_1_79">
<rect width="41" height="41" fill="white"/>
</clipPath>
</defs>
</svg>
