<svg width="64" height="23" viewBox="0 0 64 23" fill="none" xmlns="http://www.w3.org/2000/svg">
<g clip-path="url(#clip0_1_614)">
<g clip-path="url(#clip1_1_614)">
<g clip-path="url(#clip2_1_614)">
<path d="M23.9912 9.79505V19.4322H26.0219V9.79505H29.068V8.15193H26.0219V6.96049C26.0219 5.65409 26.542 4.82502 27.6811 4.82502C28.6717 4.82502 29.2908 5.47822 29.5633 6.33241L30.9748 5.82994C30.4795 4.17182 29.4394 3.31763 27.5821 3.31763C25.3037 3.31763 23.9912 4.85014 23.9912 7.18662V8.15193H22.332V9.79505H23.9912Z" fill="black"/>
<path d="M32.478 13.6538C32.478 11.1917 33.8487 9.48337 36.0279 9.48337C38.232 9.48337 39.6274 11.1917 39.6274 13.6538C39.6274 16.0907 38.232 17.8242 36.0279 17.8242C33.8487 17.8242 32.478 16.0907 32.478 13.6538ZM41.7323 13.6538C41.7323 10.237 39.2225 7.85034 36.0279 7.85034C32.8581 7.85034 30.373 10.237 30.373 13.6538C30.373 17.0706 32.8581 19.4322 36.0279 19.4322C39.2225 19.4322 41.7323 17.0706 41.7323 13.6538Z" fill="black"/>
<path d="M43.8594 3.31763V19.4322H45.9148V3.31763H43.8594Z" fill="black"/>
<path d="M50.6199 15.1613L52.1306 13.8046L56.4396 19.4322H58.8664L53.6659 12.649L58.6436 8.15193H56.0681L50.6199 13.1263V3.31763H48.5645V19.4322H50.6199V15.1613Z" fill="black"/>
<path d="M61.5157 19.4467H63.9921V16.9343H61.5157V19.4467Z" fill="black"/>
<path d="M9.55794 2.30652C14.5157 2.30652 18.5396 6.34625 18.5396 11.3354C18.5396 16.3246 14.5157 20.3643 9.55794 20.3643C4.60007 20.3643 0.576172 16.3246 0.576172 11.3354C0.576172 6.34625 4.60007 2.30652 9.55794 2.30652Z" stroke="black" stroke-width="1.1375" stroke-miterlimit="4.13357"/>
<path d="M9.43957 17.2205H9.75644C12.8259 17.2205 15.336 14.8373 15.4146 11.6924C15.4191 11.5184 15.2826 11.375 15.1129 11.375H4.08312C3.91338 11.375 3.77701 11.5184 3.78135 11.6924C3.86003 14.8373 6.37011 17.2205 9.43957 17.2205Z" fill="black"/>
</g>
</g>
</g>
<defs>
<clipPath id="clip0_1_614">
<rect width="64" height="22.75" fill="white"/>
</clipPath>
<clipPath id="clip1_1_614">
<rect width="64" height="22.75" fill="white"/>
</clipPath>
<clipPath id="clip2_1_614">
<rect width="63.9844" height="22.75" fill="white" transform="translate(0.0078125)"/>
</clipPath>
</defs>
</svg>
