<svg width="100" height="18" viewBox="0 0 100 18" fill="none" xmlns="http://www.w3.org/2000/svg">
<g clip-path="url(#clip0_1_13)">
<g clip-path="url(#clip1_1_13)">
<mask id="mask0_1_13" style="mask-type:alpha" maskUnits="userSpaceOnUse" x="0" y="0" width="18" height="18">
<path d="M18 0H0V18H18V0Z" fill="#D9D9D9"/>
</mask>
<g mask="url(#mask0_1_13)">
<path d="M4.36875 16.5L5.5875 11.2312L1.5 7.6875L6.9 7.21875L8.99999 2.25L11.1 7.21875L16.5 7.6875L12.4125 11.2312L13.6313 16.5L8.99999 13.7062L4.36875 16.5Z" fill="black"/>
</g>
<mask id="mask1_1_13" style="mask-type:alpha" maskUnits="userSpaceOnUse" x="20" y="0" width="19" height="18">
<path d="M38.25 0H20.25V18H38.25V0Z" fill="#D9D9D9"/>
</mask>
<g mask="url(#mask1_1_13)">
<path d="M24.6188 16.5L25.8376 11.2312L21.75 7.6875L27.15 7.21875L29.25 2.25L31.3501 7.21875L36.7501 7.6875L32.6625 11.2312L33.8813 16.5L29.25 13.7062L24.6188 16.5Z" fill="black"/>
</g>
<mask id="mask2_1_13" style="mask-type:alpha" maskUnits="userSpaceOnUse" x="40" y="0" width="19" height="18">
<path d="M58.5 0H40.5V18H58.5V0Z" fill="#D9D9D9"/>
</mask>
<g mask="url(#mask2_1_13)">
<path d="M44.8687 16.5L46.0876 11.2312L42 7.6875L47.4 7.21875L49.5 2.25L51.6001 7.21875L57.0001 7.6875L52.9125 11.2312L54.1313 16.5L49.5 13.7062L44.8687 16.5Z" fill="black"/>
</g>
<mask id="mask3_1_13" style="mask-type:alpha" maskUnits="userSpaceOnUse" x="60" y="0" width="19" height="18">
<path d="M78.75 0H60.75V18H78.75V0Z" fill="#D9D9D9"/>
</mask>
<g mask="url(#mask3_1_13)">
<path d="M65.1187 16.5L66.3376 11.2312L62.25 7.6875L67.65 7.21875L69.75 2.25L71.8501 7.21875L77.2501 7.6875L73.1625 11.2312L74.3813 16.5L69.75 13.7062L65.1187 16.5Z" fill="black"/>
</g>
<mask id="mask4_1_13" style="mask-type:alpha" maskUnits="userSpaceOnUse" x="81" y="0" width="18" height="18">
<path d="M99 0H81V18H99V0Z" fill="#D9D9D9"/>
</mask>
<g mask="url(#mask4_1_13)">
<path d="M85.3688 16.5L86.5876 11.2312L82.5 7.6875L87.9 7.21875L90 2.25L92.1001 7.21875L97.5001 7.6875L93.4125 11.2312L94.6313 16.5L90 13.7062L85.3688 16.5Z" fill="black"/>
</g>
</g>
</g>
<defs>
<clipPath id="clip0_1_13">
<rect width="99" height="18" fill="white"/>
</clipPath>
<clipPath id="clip1_1_13">
<rect width="99" height="18" fill="white"/>
</clipPath>
</defs>
</svg>
